<svg width="64" height="19" viewBox="0 0 64 19">
  <path d="M9 2.66c-.28-.56-.66-1.02-1.02-1.34C7.56.96 6.74.42 5.3.42c-2.5 0-3.9 1.72-3.9 3.52 0 2 1.62 2.92 2.72 3.38l1.28.54c.88.36 1.92.92 1.92 2.28 0 1.34-.96 2.24-2.2 2.24-.8 0-1.36-.32-1.74-.8-.32-.42-.56-1.04-.56-1.7l-2.02.44c.08.92.4 1.8 1.12 2.6.68.76 1.6 1.34 3.14 1.34 2.5 0 4.3-1.74 4.3-4.28 0-1.52-.68-2.92-3.14-3.92l-1.34-.54C3.58 5 3.44 4.3 3.44 3.9c0-.86.64-1.6 1.88-1.6.58 0 1.02.14 1.44.48.3.26.48.54.6.84L9 2.66zm7.413 4.72v-1.8h-1.5V2.5h-1.96v3.08h-.82v1.8h.82V14h1.96V7.38h1.5zm8.814-.82c-.8-1.04-1.88-1.2-2.5-1.2-2.22 0-4.1 1.68-4.1 4.42 0 2.32 1.48 4.48 4.08 4.48.6 0 1.66-.14 2.52-1.14V14h1.96V5.58h-1.96v.98zm-2.26.56c1.24 0 2.38.88 2.38 2.72 0 1.76-1.14 2.66-2.38 2.66-1.42 0-2.34-1.22-2.34-2.68 0-1.5.92-2.7 2.34-2.7zM31 14h1.96V9.64c0-.56 0-1.36.54-1.94.38-.4.8-.46 1.22-.46.2 0 .56.02 1 .3l.8-1.78c-.54-.32-1.06-.4-1.54-.4-.44 0-.82.06-1.2.28-.28.16-.6.44-.82.7v-.76H31V14zm11.893-6.62v-1.8h-1.5V2.5h-1.96v3.08h-.82v1.8h.82V14h1.96V7.38h1.5zm8.554 3.78c-.18.32-.44.66-.78.92-.4.3-.8.42-1.34.42-.48 0-1.04-.08-1.5-.54-.42-.42-.68-1.1-.72-1.7h6.04v-.24c0-.88-.1-2.44-1.18-3.56-.5-.52-1.36-1.1-2.7-1.1-1.2 0-2.12.44-2.82 1.14-.88.9-1.34 2.16-1.34 3.46 0 1.26.44 2.42 1.24 3.22.8.8 1.72 1.08 2.84 1.08.9 0 1.8-.2 2.48-.64.54-.34 1.06-.9 1.42-1.54l-1.64-.92zm-4.2-2.5c.1-.42.32-.82.6-1.08.26-.26.7-.54 1.38-.54.64 0 1.06.24 1.32.48.3.28.52.68.6 1.14h-3.9zM56.52 14h1.96V9.64c0-.56 0-1.36.54-1.94.38-.4.8-.46 1.22-.46.2 0 .56.02 1 .3l.8-1.78c-.54-.32-1.06-.4-1.54-.4-.44 0-.82.06-1.2.28-.28.16-.6.44-.82.7v-.76h-1.96V14zM64 17H0v2h64" fill-rule="evenodd"/>
</svg>
