<?xml version="1.0" encoding="UTF-8"?>
<svg width="190px" height="54px" viewBox="0 0 190 54" version="1.1" xmlns="http://www.w3.org/2000/svg" xmlns:xlink="http://www.w3.org/1999/xlink">
    <!-- Generator: Sketch 45 (43475) - http://www.bohemiancoding.com/sketch -->
    <title>kompass</title>
    <desc>Created with Sketch.</desc>
    <defs></defs>
    <g id="Page-1" stroke="none" stroke-width="1" fill="none" fill-rule="evenodd">
        <path d="M4.428,13.134 C4.428,10.6499876 4.38300045,8.71500693 4.293,7.329 C4.20299955,5.94299307 3.9780018,4.99800252 3.618,4.494 L1.026,4.656 L0.81,3.09 C2.32200756,2.83799874 3.75299325,2.51400198 5.103,2.118 C6.45300675,1.72199802 7.79399334,1.14600378 9.126,0.39 L10.53,1.524 C10.3499991,3.64801062 10.2420002,5.46599244 10.206,6.978 C10.1699998,8.49000756 10.152,10.0199923 10.152,11.568 L10.152,26.364 C10.9080038,25.7879971 11.7179957,25.1580034 12.582,24.474 C13.4460043,23.7899966 14.282996,23.1060034 15.093,22.422 C15.9030041,21.7379966 16.6409967,21.0810031 17.307,20.451 C17.9730033,19.8209968 18.4679984,19.2720023 18.792,18.804 L16.308,18.372 L16.578,16.752 C17.4780045,16.8240004 18.3509958,16.8779998 19.197,16.914 C20.0430042,16.9500002 20.8259964,16.968 21.546,16.968 C22.5180049,16.968 23.3729963,16.9500002 24.111,16.914 C24.8490037,16.8779998 25.6319959,16.8240004 26.46,16.752 L26.676,18.372 L23.868,18.804 C23.1479964,19.1640018 22.1040068,19.7489959 20.736,20.559 C19.3679932,21.369004 17.8020088,22.6019917 16.038,24.258 C17.1900058,25.9860086 18.1799959,27.4799937 19.008,28.74 C19.8360041,30.0000063 20.5829967,31.1159951 21.249,32.088 C21.9150033,33.0600049 22.5809967,33.9329961 23.247,34.707 C23.9130033,35.4810039 24.6599959,36.263996 25.488,37.056 L27.972,37.488 L27.702,39.108 C26.909996,39.0359996 26.1990032,38.9820002 25.569,38.946 C24.9389969,38.9099998 24.2100041,38.892 23.382,38.892 C22.6619964,38.892 21.8880041,38.9099998 21.06,38.946 C20.2319959,38.9820002 19.4760034,39.0359996 18.792,39.108 C18.3599978,38.0639948 17.9640018,37.1730037 17.604,36.435 C17.2439982,35.6969963 16.8210024,34.932004 16.335,34.14 C15.8489976,33.347996 15.2550035,32.4210053 14.553,31.359 C13.8509965,30.2969947 12.9420056,28.9200085 11.826,27.228 L10.152,28.524 L10.152,29.55 C10.152,31.5300099 10.1699998,33.0869943 10.206,34.221 C10.2420002,35.3550057 10.3679989,36.2999962 10.584,37.056 L13.338,37.488 L13.014,39.108 C12.0419951,39.0359996 11.0430051,38.9820002 10.017,38.946 C8.99099487,38.9099998 8.06400414,38.892 7.236,38.892 C6.40799586,38.892 5.49000504,38.9099998 4.482,38.946 C3.47399496,38.9820002 2.46600504,39.0359996 1.458,39.108 L1.188,37.488 L3.888,37.056 C4.0680009,36.2999962 4.20299955,35.3550057 4.293,34.221 C4.38300045,33.0869943 4.428,31.5300099 4.428,29.55 L4.428,13.134 Z M41.85,15.888 C45.7740196,15.888 48.7799896,16.8959899 50.868,18.912 C52.9560104,20.9280101 54,23.93398 54,27.93 C54,29.5860083 53.6940031,31.1339928 53.082,32.574 C52.4699969,34.0140072 51.6240054,35.2739946 50.544,36.354 C49.4639946,37.4340054 48.1770075,38.2799969 46.683,38.892 C45.1889925,39.5040031 43.5780086,39.81 41.85,39.81 C37.9259804,39.81 34.9020106,38.8200099 32.778,36.84 C30.6539894,34.8599901 29.592,31.8900198 29.592,27.93 C29.592,26.2019914 29.9069969,24.6000074 30.537,23.124 C31.1670032,21.6479926 32.0309945,20.3790053 33.129,19.317 C34.2270055,18.2549947 35.5229925,17.4180031 37.017,16.806 C38.5110075,16.1939969 40.1219914,15.888 41.85,15.888 Z M42.719994,37.7573775 C43.7612782,37.6488271 44.6142717,37.3430376 45.279,36.84 C45.9450033,36.3359975 46.4669981,35.7150037 46.845,34.977 C47.2230019,34.2389963 47.4749994,33.4200045 47.601,32.52 C47.7270006,31.6199955 47.79,30.7020047 47.79,29.766 C47.79,28.361993 47.691001,26.9490071 47.493,25.527 C47.294999,24.1049929 46.9440025,22.8360056 46.44,21.72 C45.9359975,20.6039944 45.2520043,19.6950035 44.388,18.993 C43.5239957,18.2909965 42.4260067,17.94 41.094,17.94 C39.9779944,17.94 39.0780034,18.1919975 38.394,18.696 C37.7099966,19.2000025 37.1790019,19.8389961 36.801,20.613 C36.4229981,21.3870039 36.1620007,22.2599951 36.018,23.232 C35.8739993,24.2040049 35.802,25.1579953 35.802,26.094 C35.802,27.5700074 35.9099989,29.009993 36.126,30.414 C36.3420011,31.818007 36.7199973,33.0599946 37.26,34.14 C37.8000027,35.2200054 38.5199955,36.0929967 39.42,36.759 C40.2975388,37.4083787 41.3975263,37.7411682 42.719994,37.7573775 L42.719994,37.7573775 Z M95.256,29.55 C95.256,31.5300099 95.2739998,33.0869943 95.31,34.221 C95.3460002,35.3550057 95.4899987,36.2999962 95.742,37.056 L98.442,37.488 L98.172,39.108 C97.163995,39.0359996 96.1470051,38.9820002 95.121,38.946 C94.0949949,38.9099998 93.1680041,38.892 92.34,38.892 C91.5119959,38.892 90.6660043,38.9099998 89.802,38.946 C88.9379957,38.9820002 88.002005,39.0359996 86.994,39.108 L86.724,37.488 L89.046,37.056 C89.2260009,36.2999962 89.3519996,35.3550057 89.424,34.221 C89.4960004,33.0869943 89.532,31.5300099 89.532,29.55 L89.532,26.634 C89.532,23.8619861 89.235003,21.8910058 88.641,20.721 C88.046997,19.5509941 87.0660068,18.966 85.698,18.966 C84.0059915,18.966 82.2780088,19.7939917 80.514,21.45 C80.5860004,22.1700036 80.6309999,23.0159951 80.649,23.988 C80.6670001,24.9600049 80.676,25.9139953 80.676,26.85 L80.676,29.55 C80.676,31.5300099 80.6939998,33.0869943 80.73,34.221 C80.7660002,35.3550057 80.8919989,36.2999962 81.108,37.056 L83.646,37.488 L83.322,39.108 C82.2779948,39.0359996 81.3060045,38.9820002 80.406,38.946 C79.5059955,38.9099998 78.6420041,38.892 77.814,38.892 C76.9859959,38.892 76.1310044,38.9099998 75.249,38.946 C74.3669956,38.9820002 73.422005,39.0359996 72.414,39.108 L72.144,37.488 L74.466,37.056 C74.6460009,36.2999962 74.7719996,35.3550057 74.844,34.221 C74.9160004,33.0869943 74.952,31.5300099 74.952,29.55 L74.952,26.634 C74.952,23.8619861 74.6640029,21.8910058 74.088,20.721 C73.5119971,19.5509941 72.5400068,18.966 71.172,18.966 C70.3079957,18.966 69.4620041,19.163998 68.634,19.56 C67.8059959,19.956002 66.9600043,20.5859957 66.096,21.45 L66.096,29.928 C66.096,30.6120034 66.1049999,31.3049965 66.123,32.007 C66.1410001,32.7090035 66.1589999,33.3839968 66.177,34.032 C66.1950001,34.6800032 66.2309997,35.2649974 66.285,35.787 C66.3390003,36.3090026 66.4199995,36.7319984 66.528,37.056 L69.12,37.488 L68.742,39.108 C67.8059953,39.0359996 66.8520049,38.9820002 65.88,38.946 C64.9079951,38.9099998 64.0080041,38.892 63.18,38.892 C62.3519959,38.892 61.4430049,38.9099998 60.453,38.946 C59.462995,38.9820002 58.464005,39.0359996 57.456,39.108 L57.132,37.488 L59.832,37.056 C60.0120009,36.2999962 60.1469995,35.3550057 60.237,34.221 C60.3270004,33.0869943 60.372,31.5300099 60.372,29.55 L60.372,26.418 C60.3359998,24.5819908 60.2370008,23.1690049 60.075,22.179 C59.9129992,21.188995 59.7060013,20.5140018 59.454,20.154 L56.916,20.532 L56.592,18.912 C58.1040076,18.515998 59.4179944,18.1020022 60.534,17.67 C61.6500056,17.2379978 62.8379937,16.6080041 64.098,15.78 L65.556,16.86 L65.772,19.398 C67.1040067,18.389995 68.4269934,17.5800031 69.741,16.968 C71.0550066,16.3559969 72.4679924,16.05 73.98,16.05 C75.7080086,16.05 77.0219955,16.3649968 77.922,16.995 C78.8220045,17.6250031 79.4519982,18.443995 79.812,19.452 C81.2880074,18.2639941 82.7459928,17.4000027 84.186,16.86 C85.6260072,16.3199973 87.1379921,16.05 88.722,16.05 C90.3420081,16.05 91.5929956,16.2749977 92.475,16.725 C93.3570044,17.1750022 94.0049979,17.8499955 94.419,18.75 C94.8330021,19.6500045 95.0759996,20.7749932 95.148,22.125 C95.2200004,23.4750067 95.256,25.049991 95.256,26.85 L95.256,29.55 Z M103.95,32.304 C103.95,30.7199921 103.941,29.2350069 103.923,27.849 C103.905,26.4629931 103.869,25.2390053 103.815,24.177 C103.761,23.1149947 103.680001,22.2240036 103.572,21.504 C103.463999,20.7839964 103.302001,20.3160011 103.086,20.1 L100.494,20.532 L100.17,18.912 C101.754008,18.515998 103.130994,18.1020022 104.301,17.67 C105.471006,17.2379978 106.613994,16.626004 107.73,15.834 L109.134,16.698 L109.458,19.884 C110.790007,18.6239937 112.049994,17.6700032 113.238,17.022 C114.426006,16.3739968 115.703993,16.05 117.072,16.05 C118.404007,16.05 119.636994,16.2659978 120.771,16.698 C121.905006,17.1300022 122.876996,17.8049954 123.687,18.723 C124.497004,19.6410046 125.135998,20.7929931 125.604,22.179 C126.072002,23.5650069 126.306,25.1939906 126.306,27.066 C126.306,29.0100097 125.964003,30.7469923 125.28,32.277 C124.595997,33.8070076 123.687006,35.1029947 122.553,36.165 C121.418994,37.2270053 120.114007,38.0369972 118.638,38.595 C117.161993,39.1530028 115.614008,39.432 113.994,39.432 C113.273996,39.432 112.536004,39.3690006 111.78,39.243 C111.023996,39.1169994 110.304003,38.9460011 109.62,38.73 L109.62,44.13 C109.62,46.1100099 109.647,47.6669943 109.701,48.801 C109.755,49.9350057 109.889999,50.8799962 110.106,51.636 L112.86,52.122 L112.536,53.688 C111.563995,53.6159996 110.565005,53.5620002 109.539,53.526 C108.512995,53.4899998 107.586004,53.472 106.758,53.472 C105.929996,53.472 105.012005,53.4899998 104.004,53.526 C102.995995,53.5620002 101.988005,53.6159996 100.98,53.688 L100.71,52.122 L103.41,51.636 C103.590001,50.8799962 103.725,49.9350057 103.815,48.801 C103.905,47.6669943 103.95,46.1100099 103.95,44.13 L103.95,32.304 Z M109.62,35.274 C110.304003,36.066004 111.086996,36.6059986 111.969,36.894 C112.851004,37.1820014 113.759995,37.326 114.696,37.326 C116.316008,37.326 117.629995,36.6420068 118.638,35.274 C119.646005,33.9059932 120.15,31.8900133 120.15,29.226 C120.15,25.9139834 119.646005,23.3940086 118.638,21.666 C117.629995,19.9379914 116.262009,19.074 114.534,19.074 C113.705996,19.074 112.887004,19.3349974 112.077,19.857 C111.266996,20.3790026 110.448004,21.3239932 109.62,22.692 L109.62,35.274 Z M134.028,22.854 C133.739999,22.854 133.389002,22.7820007 132.975,22.638 C132.560998,22.4939993 132.174002,22.3050012 131.814,22.071 C131.453998,21.8369988 131.148001,21.5580016 130.896,21.234 C130.643999,20.9099984 130.518,20.5680018 130.518,20.208 C130.518,19.7039975 130.787997,19.2000025 131.328,18.696 C131.868003,18.1919975 132.578996,17.7330021 133.461,17.319 C134.343004,16.9049979 135.350994,16.5630013 136.485,16.293 C137.619006,16.0229986 138.779994,15.888 139.968,15.888 C141.012005,15.888 141.992995,16.0049988 142.911,16.239 C143.829005,16.4730012 144.629997,16.8419975 145.314,17.346 C145.998003,17.8500025 146.537998,18.4889961 146.934,19.263 C147.330002,20.0370039 147.528,20.9819944 147.528,22.098 L147.528,25.068 C147.528,25.7880036 147.519,26.6069954 147.501,27.525 C147.483,28.4430046 147.474,29.7119919 147.474,31.332 C147.474,32.124004 147.483,32.8799964 147.501,33.6 C147.519,34.3200036 147.581999,34.9499973 147.69,35.49 C147.798001,36.0300027 147.950999,36.4619984 148.149,36.786 C148.347001,37.1100016 148.643998,37.272 149.04,37.272 C149.508002,37.272 150.101996,37.0380023 150.822,36.57 L151.74,37.92 C151.415998,38.1720013 151.029002,38.4059989 150.579,38.622 C150.128998,38.8380011 149.652003,39.0359991 149.148,39.216 C148.643997,39.3960009 148.131003,39.5399995 147.609,39.648 C147.086997,39.7560005 146.610002,39.81 146.178,39.81 C144.809993,39.81 143.820003,39.4860032 143.208,38.838 C142.595997,38.1899968 142.200001,37.5060036 142.02,36.786 C140.975995,37.7580049 139.968005,38.5049974 138.996,39.027 C138.023995,39.5490026 136.872007,39.81 135.54,39.81 C134.855997,39.81 134.136004,39.7020011 133.38,39.486 C132.623996,39.2699989 131.931003,38.9280023 131.301,38.46 C130.670997,37.9919977 130.149002,37.3980036 129.735,36.678 C129.320998,35.9579964 129.114,35.094005 129.114,34.086 C129.114,32.8619939 129.446997,31.7910046 130.113,30.873 C130.779003,29.9549954 131.696994,29.1810031 132.867,28.551 C134.037006,27.9209968 135.386992,27.4260018 136.917,27.066 C138.447008,26.7059982 140.075991,26.4720005 141.804,26.364 L141.804,23.34 C141.804,21.5039908 141.525003,20.1000049 140.967,19.128 C140.408997,18.1559951 139.500006,17.67 138.24,17.67 C137.843998,17.67 137.403002,17.7599991 136.917,17.94 C136.430998,18.1200009 135.981002,18.4169979 135.567,18.831 C135.152998,19.2450021 134.802001,19.7849967 134.514,20.451 C134.225999,21.1170033 134.064,21.9179953 134.028,22.854 Z M135.054,33.33 C135.054,34.4820058 135.332997,35.3639969 135.891,35.976 C136.449003,36.5880031 137.105996,36.894 137.862,36.894 C138.366003,36.894 138.986996,36.795001 139.725,36.597 C140.463004,36.398999 141.155997,35.904004 141.804,35.112 L141.804,28.2 C140.435993,28.2720004 139.320004,28.4789983 138.456,28.821 C137.591996,29.1630017 136.908003,29.5769976 136.404,30.063 C135.899997,30.5490024 135.549001,31.0799971 135.351,31.656 C135.152999,32.2320029 135.054,32.7899973 135.054,33.33 Z M159.192,39.81 C158.831998,39.81 158.400003,39.7830003 157.896,39.729 C157.391997,39.6749997 156.870003,39.6030004 156.33,39.513 C155.789997,39.4229995 155.259003,39.3060007 154.737,39.162 C154.214997,39.0179993 153.738002,38.8560009 153.306,38.676 L153.9,33.384 L155.088,33.438 C155.196001,34.0860032 155.429998,34.6889972 155.79,35.247 C156.150002,35.8050028 156.581997,36.281998 157.086,36.678 C157.590003,37.074002 158.129997,37.3889988 158.706,37.623 C159.282003,37.8570012 159.875997,37.974 160.488,37.974 C161.532005,37.974 162.458996,37.6590031 163.269,37.029 C164.079004,36.3989968 164.484,35.4000068 164.484,34.032 C164.484,33.0959953 164.214003,32.331003 163.674,31.737 C163.133997,31.142997 162.450004,30.6300022 161.622,30.198 C160.793996,29.7659978 159.903005,29.3700018 158.949,29.01 C157.994995,28.6499982 157.104004,28.2090026 156.276,27.687 C155.447996,27.1649974 154.764003,26.5170039 154.224,25.743 C153.683997,24.9689961 153.414,23.9700061 153.414,22.746 C153.414,21.5219939 153.683997,20.4780043 154.224,19.614 C154.764003,18.7499957 155.474996,18.0570026 156.357,17.535 C157.239004,17.0129974 158.237994,16.6350012 159.354,16.401 C160.470006,16.1669988 161.621994,16.05 162.81,16.05 C163.890005,16.05 164.942995,16.1399991 165.969,16.32 C166.995005,16.5000009 167.921996,16.7339986 168.75,17.022 L168.21,21.558 L167.022,21.558 C166.697998,20.2259933 166.086005,19.263003 165.186,18.669 C164.285995,18.074997 163.350005,17.778 162.378,17.778 C161.441995,17.778 160.623004,18.0299975 159.921,18.534 C159.218996,19.0380025 158.868,19.8119948 158.868,20.856 C158.868,21.7920047 159.146997,22.5479971 159.705,23.124 C160.263003,23.7000029 160.955996,24.2129977 161.784,24.663 C162.612004,25.1130022 163.511995,25.5269981 164.484,25.905 C165.456005,26.2830019 166.355996,26.7509972 167.184,27.309 C168.012004,27.8670028 168.704997,28.5509959 169.263,29.361 C169.821003,30.171004 170.1,31.2239935 170.1,32.52 C170.1,33.924007 169.794003,35.0849954 169.182,36.003 C168.569997,36.9210046 167.751005,37.6679971 166.725,38.244 C165.698995,38.8200029 164.529007,39.2249988 163.215,39.459 C161.900993,39.6930012 160.560007,39.81 159.192,39.81 Z M178.524,39.81 C178.163998,39.81 177.732003,39.7830003 177.228,39.729 C176.723997,39.6749997 176.202003,39.6030004 175.662,39.513 C175.121997,39.4229995 174.591003,39.3060007 174.069,39.162 C173.546997,39.0179993 173.070002,38.8560009 172.638,38.676 L173.232,33.384 L174.42,33.438 C174.528001,34.0860032 174.761998,34.6889972 175.122,35.247 C175.482002,35.8050028 175.913997,36.281998 176.418,36.678 C176.922003,37.074002 177.461997,37.3889988 178.038,37.623 C178.614003,37.8570012 179.207997,37.974 179.82,37.974 C180.864005,37.974 181.790996,37.6590031 182.601,37.029 C183.411004,36.3989968 183.816,35.4000068 183.816,34.032 C183.816,33.0959953 183.546003,32.331003 183.006,31.737 C182.465997,31.142997 181.782004,30.6300022 180.954,30.198 C180.125996,29.7659978 179.235005,29.3700018 178.281,29.01 C177.326995,28.6499982 176.436004,28.2090026 175.608,27.687 C174.779996,27.1649974 174.096003,26.5170039 173.556,25.743 C173.015997,24.9689961 172.746,23.9700061 172.746,22.746 C172.746,21.5219939 173.015997,20.4780043 173.556,19.614 C174.096003,18.7499957 174.806996,18.0570026 175.689,17.535 C176.571004,17.0129974 177.569994,16.6350012 178.686,16.401 C179.802006,16.1669988 180.953994,16.05 182.142,16.05 C183.222005,16.05 184.274995,16.1399991 185.301,16.32 C186.327005,16.5000009 187.253996,16.7339986 188.082,17.022 L187.542,21.558 L186.354,21.558 C186.029998,20.2259933 185.418004,19.263003 184.518,18.669 C183.617995,18.074997 182.682005,17.778 181.71,17.778 C180.773995,17.778 179.955004,18.0299975 179.253,18.534 C178.550996,19.0380025 178.2,19.8119948 178.2,20.856 C178.2,21.7920047 178.478997,22.5479971 179.037,23.124 C179.595003,23.7000029 180.287996,24.2129977 181.116,24.663 C181.944004,25.1130022 182.843995,25.5269981 183.816,25.905 C184.788005,26.2830019 185.687996,26.7509972 186.516,27.309 C187.344004,27.8670028 188.036997,28.5509959 188.595,29.361 C189.153003,30.171004 189.432,31.2239935 189.432,32.52 C189.432,33.924007 189.126003,35.0849954 188.514,36.003 C187.901997,36.9210046 187.083005,37.6679971 186.057,38.244 C185.030995,38.8200029 183.861007,39.2249988 182.547,39.459 C181.232993,39.6930012 179.892007,39.81 178.524,39.81 Z" id="kompass" fill="#FFFFFF"></path>
    </g>
</svg>